<svg width="40" height="40" viewBox="0 0 40 40" fill="none" xmlns="http://www.w3.org/2000/svg">
<path fill-rule="evenodd" clip-rule="evenodd" d="M36.6666 19.9999C36.6666 29.2046 29.2046 36.6666 19.9999 36.6666C10.7952 36.6666 3.33325 29.2046 3.33325 19.9999C3.33325 10.7952 10.7952 3.33325 19.9999 3.33325C29.2046 3.33325 36.6666 10.7952 36.6666 19.9999ZM19.9999 29.5833C20.6903 29.5833 21.2499 29.0236 21.2499 28.3333V18.3333C21.2499 17.6429 20.6903 17.0833 19.9999 17.0833C19.3096 17.0833 18.7499 17.6429 18.7499 18.3333V28.3333C18.7499 29.0236 19.3096 29.5833 19.9999 29.5833ZM19.9999 11.6666C20.9204 11.6666 21.6666 12.4128 21.6666 13.3333C21.6666 14.2537 20.9204 14.9999 19.9999 14.9999C19.0794 14.9999 18.3333 14.2537 18.3333 13.3333C18.3333 12.4128 19.0794 11.6666 19.9999 11.6666Z" fill="#68B2A0"/>
</svg>
