<svg width="52" height="50" viewBox="0 0 52 50" fill="none" xmlns="http://www.w3.org/2000/svg">
<path d="M8.66675 33.3334V21.339C8.66675 21.1067 8.92101 20.9557 9.13709 21.0595L23.0933 27.7692C24.923 28.649 27.0771 28.649 28.9069 27.7692L42.863 21.0595C43.0793 20.9557 43.3334 21.1067 43.3334 21.339V33.3334C43.3334 35.6347 41.3934 37.5001 39.0001 37.5001H13.0001C10.6068 37.5001 8.66675 35.6347 8.66675 33.3334Z" fill="#68B2A0"/>
<path d="M8.66675 16.6667V18.5569C8.66675 18.6752 8.7363 18.7834 8.84641 18.8364L23.0933 25.6858C24.923 26.5656 27.0771 26.5656 28.9069 25.6858L43.1538 18.8364C43.2639 18.7834 43.3334 18.6752 43.3334 18.5569V16.6667C43.3334 14.3655 41.3934 12.5 39.0001 12.5H13.0001C10.6068 12.5 8.66675 14.3655 8.66675 16.6667Z" fill="#E0ECDE" fill-opacity="0.24"/>
</svg>
