<svg width="41" height="40" viewBox="0 0 41 40" fill="none" xmlns="http://www.w3.org/2000/svg">
<path d="M23.665 0.824983C22.786 0.29235 21.7778 0.0107422 20.75 0.0107422C19.7222 0.0107422 18.714 0.29235 17.835 0.824983L4.71 8.77998C3.88291 9.28115 3.199 9.98708 2.72429 10.8296C2.24959 11.6722 2.00013 12.6229 2 13.59V26.41C2.00013 27.3771 2.24959 28.3278 2.72429 29.1703C3.199 30.0129 3.88291 30.7188 4.71 31.22L17.835 39.175C18.714 39.7076 19.7222 39.9892 20.75 39.9892C21.7778 39.9892 22.786 39.7076 23.665 39.175L36.79 31.22C37.6171 30.7188 38.301 30.0129 38.7757 29.1703C39.2504 28.3278 39.4999 27.3771 39.5 26.41V13.59C39.4999 12.6229 39.2504 11.6722 38.7757 10.8296C38.301 9.98708 37.6171 9.28115 36.79 8.77998L23.665 0.824983Z" fill="#E0ECDE"/>
<path d="M37.4166 3.33325H4.08325V36.6666H37.4166V3.33325Z" stroke="#68B2A0" stroke-width="0.00666667"/>
<path d="M15.8888 29.0277C16.4641 29.0277 16.9305 28.5613 16.9305 27.986C16.9305 27.4107 16.4641 26.9443 15.8888 26.9443C15.3135 26.9443 14.8472 27.4107 14.8472 27.986C14.8472 28.5613 15.3135 29.0277 15.8888 29.0277Z" fill="#68B2A0" stroke="#68B2A0" stroke-width="0.00666667"/>
<path d="M33.9444 25.9025V33.1942C33.9444 33.5625 33.7981 33.9158 33.5376 34.1763C33.2771 34.4367 32.9239 34.5831 32.5555 34.5831H8.94439C8.57603 34.5831 8.22276 34.4367 7.9623 34.1763C7.70183 33.9158 7.5555 33.5625 7.5555 33.1942V25.9025C7.54264 25.4988 7.64737 25.1001 7.85697 24.7549C8.06657 24.4097 8.37198 24.1329 8.73606 23.9581H8.8055L13.9444 21.5969C14.2241 21.4558 14.5339 21.3843 14.8472 21.3886V25.0692C14.248 25.2912 13.7293 25.6878 13.3579 26.2078C12.9865 26.7277 12.7796 27.3471 12.7638 27.9858C12.7638 28.8146 13.0931 29.6095 13.6791 30.1955C14.2652 30.7816 15.06 31.1108 15.8888 31.1108C16.7176 31.1108 17.5125 30.7816 18.0985 30.1955C18.6846 29.6095 19.0138 28.8146 19.0138 27.9858C18.9981 27.3471 18.7912 26.7277 18.4198 26.2078C18.0484 25.6878 17.5296 25.2912 16.9305 25.0692V22.0831L17.2777 22.2914C18.3311 22.9078 19.5295 23.2326 20.7499 23.2326C21.9704 23.2326 23.1688 22.9078 24.2222 22.2914L24.5694 22.0831V24.6525C23.6761 24.8832 22.8846 25.4038 22.319 26.1327C21.7535 26.8616 21.4458 27.7577 21.4444 28.6803V30.4164C21.4444 30.8768 21.6273 31.3184 21.9529 31.644C22.2785 31.9696 22.7201 32.1525 23.1805 32.1525H23.8749C24.1512 32.1525 24.4162 32.0428 24.6115 31.8474C24.8069 31.6521 24.9166 31.3871 24.9166 31.1108C24.9166 30.8346 24.8069 30.5696 24.6115 30.3743C24.4162 30.1789 24.1512 30.0692 23.8749 30.0692H23.5277V28.6803C23.5277 28.1277 23.7472 27.5978 24.1379 27.2071C24.5286 26.8164 25.0585 26.5969 25.6111 26.5969C26.1636 26.5969 26.6935 26.8164 27.0842 27.2071C27.4749 27.5978 27.6944 28.1277 27.6944 28.6803V30.0692H27.3472C27.0709 30.0692 26.806 30.1789 26.6106 30.3743C26.4152 30.5696 26.3055 30.8346 26.3055 31.1108C26.3055 31.3871 26.4152 31.6521 26.6106 31.8474C26.806 32.0428 27.0709 32.1525 27.3472 32.1525H28.0416C28.5021 32.1525 28.9436 31.9696 29.2692 31.644C29.5948 31.3184 29.7777 30.8768 29.7777 30.4164V28.6803C29.7763 27.7577 29.4686 26.8616 28.9031 26.1327C28.3375 25.4038 27.546 24.8832 26.6527 24.6525V21.3886C26.966 21.3843 27.2758 21.4558 27.5555 21.5969L32.7638 23.9581C33.1279 24.1329 33.4333 24.4097 33.6429 24.7549C33.8525 25.1001 33.9573 25.4988 33.9444 25.9025Z" fill="#68B2A0" stroke="#68B2A0" stroke-width="0.00666667"/>
<path d="M20.75 20.6943C24.9688 20.6943 28.3889 17.2742 28.3889 13.0554C28.3889 8.83655 24.9688 5.4165 20.75 5.4165C16.5311 5.4165 13.1111 8.83655 13.1111 13.0554C13.1111 17.2742 16.5311 20.6943 20.75 20.6943Z" fill="#68B2A0" stroke="#68B2A0" stroke-width="0.00666667"/>
</svg>
